<?xml version="1.0" encoding="UTF-8" standalone="no"?>
<!-- Created with Inkscape (http://www.inkscape.org/) -->

<svg
   xmlns:dc="http://purl.org/dc/elements/1.1/"
   xmlns:cc="http://creativecommons.org/ns#"
   xmlns:rdf="http://www.w3.org/1999/02/22-rdf-syntax-ns#"
   xmlns:svg="http://www.w3.org/2000/svg"
   xmlns="http://www.w3.org/2000/svg"
   xmlns:sodipodi="http://sodipodi.sourceforge.net/DTD/sodipodi-0.dtd"
   xmlns:inkscape="http://www.inkscape.org/namespaces/inkscape"
   width="48"
   height="48"
   viewBox="0 0 12.7 12.700001"
   version="1.1"
   id="svg8"
   inkscape:version="0.92.3 (2405546, 2018-03-11)"
   sodipodi:docname="love-mdpi.svg">
  <defs
     id="defs2">
    <inkscape:path-effect
       effect="spiro"
       id="path-effect861"
       is_visible="true" />
    <inkscape:perspective
       sodipodi:type="inkscape:persp3d"
       inkscape:vp_x="0 : 148.50001 : 1"
       inkscape:vp_y="0 : 1000.0001 : 0"
       inkscape:vp_z="210 : 148.50001 : 1"
       inkscape:persp3d-origin="105 : 99.000005 : 1"
       id="perspective817" />
  </defs>
  <sodipodi:namedview
     id="base"
     pagecolor="#ffffff"
     bordercolor="#666666"
     borderopacity="1.0"
     inkscape:pageopacity="0.0"
     inkscape:pageshadow="2"
     inkscape:zoom="2.5440586"
     inkscape:cx="61.108249"
     inkscape:cy="10.882291"
     inkscape:document-units="mm"
     inkscape:current-layer="layer1"
     showgrid="false"
     inkscape:snap-others="false"
     inkscape:snap-to-guides="false"
     inkscape:object-nodes="false"
     inkscape:snap-nodes="false"
     inkscape:snap-global="false"
     inkscape:window-width="1680"
     inkscape:window-height="996"
     inkscape:window-x="0"
     inkscape:window-y="0"
     inkscape:window-maximized="1"
     units="px" />
  <metadata
     id="metadata5">
    <rdf:RDF>
      <cc:Work
         rdf:about="">
        <dc:format>image/svg+xml</dc:format>
        <dc:type
           rdf:resource="http://purl.org/dc/dcmitype/StillImage" />
        <dc:title></dc:title>
      </cc:Work>
    </rdf:RDF>
  </metadata>
  <g
     inkscape:label="Camada 1"
     inkscape:groupmode="layer"
     id="layer1"
     transform="translate(0,-284.29998)">
    <g
       id="g1083"
       transform="matrix(0.05364978,0,0,0.05732279,1.2581699,282.69099)">
      <path
         style="fill:#cccccc;stroke:#b00000;stroke-width:0.01088163;stroke-miterlimit:4;stroke-dasharray:none;stroke-opacity:1"
         d="m 5.9802596,225.58706 103.9628804,1.94646 c 0.38644,0.008 0.61423,0.0189 0.69775,0.13853 l 13.60587,19.48861 c 0.0835,0.11964 -0.31123,0.14331 -0.69775,0.13854 L 17.217342,245.98353 c -0.386521,-0.005 0.624497,0.10867 -0.07328,-0.0299 L 5.2825151,225.7256 c -0.079534,-0.13563 0.3112954,-0.14578 0.6977445,-0.13854 z"
         id="path848"
         inkscape:connector-curvature="0"
         sodipodi:nodetypes="sssssscss" />
      <path
         sodipodi:nodetypes="ccssscc"
         inkscape:connector-curvature="0"
         id="rect840"
         d="m 178.46627,31.926183 c -16.98111,63.597288 -41.68431,129.762437 -62.61093,193.523877 -0.12411,0.37815 -0.29708,0.7248 -0.66608,0.7248 H 5.9531682 c -0.3690052,0 -0.8027836,-0.35184 -0.6660743,-0.7248 L 76.487875,31.201374 c 39.446335,-0.193096 68.669115,0.244723 101.978395,0.724809 z"
         style="fill:#666666;stroke:#b00000;stroke-width:0.02431872;stroke-miterlimit:4;stroke-dasharray:none;stroke-opacity:1" />
      <path
         sodipodi:nodetypes="ccccc"
         inkscape:connector-curvature="0"
         id="path850"
         d="M 89.067556,51.495844 C 65.195083,116.05136 41.568594,180.73704 17.859398,245.37129 L 6.2049241,225.08332 C 31.327646,155.81225 65.985402,62.637618 77.0373,32.07638 Z"
         style="fill:#ff8080;stroke:#b00000;stroke-width:0.01342225;stroke-miterlimit:4;stroke-dasharray:none;stroke-opacity:1" />
      <path
         sodipodi:nodetypes="ccccc"
         inkscape:connector-curvature="0"
         id="path846"
         d="m 177.54461,32.338646 c 6.11992,10.911116 7.46931,12.456421 11.85079,20.006251 C 159.17522,52.303444 122.6185,52.08127 89.322072,51.502314 84.467786,43.87504 83.309761,41.897846 77.345588,31.826955 c 33.350292,0.0077 66.659632,0.06668 100.199022,0.511691 z"
         style="fill:#ff8080;stroke:#b00000;stroke-width:0.01094343;stroke-miterlimit:4;stroke-dasharray:none;stroke-opacity:1" />
      <path
         style="fill:#4d4d4d;stroke:#b00000;stroke-width:0.02431872;stroke-miterlimit:4;stroke-dasharray:none;stroke-opacity:1"
         d="m 89.878472,51.496013 99.715668,0.591237 c -18.81929,62.84097 -41.12054,130.52816 -61.74947,194.38226 -0.12238,0.37882 -0.29707,0.72609 -0.66608,0.7248 L 17.290172,246.81209 c -0.369004,-9.6e-4 -0.151677,0.0298 -0.01375,-0.34258 L 89.212392,52.220821 c 0.137928,-0.37244 0.297072,-0.726996 0.66608,-0.724808 z"
         id="path844"
         inkscape:connector-curvature="0"
         sodipodi:nodetypes="sccsssss" />
      <path
         inkscape:connector-curvature="0"
         d="m 83.105682,98.024047 c 0.267499,-0.638201 0.608683,-1.218999 0.971125,-1.777058 0.344161,-0.509079 0.705518,-1.000757 1.107654,-1.439413 0.05959,-0.05871 0.11353,-0.127637 0.178766,-0.17612 0.823632,-0.612115 1.656006,-1.20577 2.486025,-1.804323 0.06039,-0.04356 0.245435,-0.165517 0.185073,-0.121895 -0.707561,0.511354 -2.840538,2.022998 -2.126798,1.525176 1.349852,-0.941498 1.755389,-1.239902 2.673876,-1.913172 0.40297,-0.2579 0.79839,-0.532827 1.210501,-0.768456 0.366101,-0.281758 0.771378,-0.417768 1.193571,-0.484856 0.403441,-0.04767 0.809338,-0.03769 1.214038,-0.0341 0.444384,0.0027 0.888776,0.0024 1.333165,0.0023 0.434536,-0.02409 0.859137,0.0096 1.276357,0.166588 0.456951,0.223814 0.821925,0.638603 1.177464,1.047531 0.382649,0.385912 0.651102,0.88366 0.923185,1.385182 0.218774,0.443388 0.388401,0.922334 0.558833,1.396861 0.167846,0.506745 0.288831,1.03167 0.36695,1.570474 0.05038,0.481603 0.145297,0.952492 0.199141,1.433593 0.04977,0.505776 0.04922,1.016434 0.0538,1.525191 0.0024,0.49411 0.0049,0.98826 6.1e-4,1.48236 -0.0043,0.57059 -0.0037,1.14117 -0.0018,1.71177 -6.1e-4,0.51215 0.01378,1.02439 -0.01567,1.5355 -0.09914,0.62869 -0.262049,1.24041 -0.412695,1.85261 -0.15447,0.61117 -0.462879,1.11536 -0.792575,1.59464 -0.932847,1.1712 -2.178092,1.87602 -3.377769,2.548 -0.850769,0.59448 -0.723918,0.50677 1.949015,-1.39499 0.06145,-0.0437 -0.121442,0.0905 -0.182228,0.13568 -0.191456,0.14218 -0.375172,0.28965 -0.55693,0.45051 -1.039834,1.09069 -2.202252,1.80674 -3.397382,2.67475 0.115923,-0.17888 -0.730503,0.44759 -0.512702,0.29141 4.216054,-3.02309 2.505195,-0.61114 2.157638,-1.78691 0.29706,-0.0731 0.65939,-0.0179 0.97113,-0.0169 0.424649,-7.6e-4 0.849292,-0.005 1.273936,-0.007 0.42704,0.003 0.854086,-0.002 1.28112,7.6e-4 0.459672,4.1e-4 0.919331,0.002 1.379002,1.3e-4 0.397044,-0.002 0.794094,-0.002 1.191144,-0.003 0.457458,-0.0561 0.850214,0.12658 1.241528,0.40313 0.44147,0.37804 0.84859,0.81708 1.2596,1.24494 0.45169,0.51864 0.81462,1.13842 1.20578,1.72497 0.37444,0.51096 0.73618,1.02037 1.02978,1.60911 0.3209,0.62343 0.5811,1.29147 0.85275,1.94935 0.23026,0.51177 0.30704,1.08056 0.39764,1.64605 0.0961,0.66778 0.17815,1.33883 0.28131,2.00515 0.15783,0.77357 0.18698,1.57089 0.25226,2.36088 0.075,0.78278 0.13656,1.56744 0.17593,2.35427 0.0261,0.55501 0.0245,1.11121 0.0266,1.66695 4.8e-4,0.56035 -0.003,1.1207 -0.004,1.68105 -0.005,0.67519 -0.002,1.35038 -0.005,2.02558 0.0136,0.70737 0.005,1.41009 -0.0909,2.10851 -0.0748,0.62978 -0.26851,1.20812 -0.46837,1.78794 -0.18246,0.63879 -0.34442,1.28178 -0.55668,1.9073 -0.22059,0.68989 -0.53964,1.31839 -0.84964,1.94921 -0.37361,0.75807 -0.73697,1.52232 -1.15387,2.24503 -0.51286,0.90854 -1.04804,1.79237 -1.62866,2.63529 -0.5015,0.73589 -1.029973,1.43407 -1.636826,2.03485 -1.152969,1.14949 -2.450991,2.06543 -3.802637,2.80042 -0.376905,0.26965 -0.781457,0.46235 -1.174402,0.688 -0.403314,0.19125 -0.815698,0.34827 -1.242759,0.42908 -0.524756,0.0854 -1.05522,0.0817 -1.583395,0.0876 -0.550943,0.006 -1.1019,-6e-4 -1.652846,-7.6e-4 -0.550208,-0.0164 -1.103298,0.0378 -1.650776,-0.0389 -0.487198,-0.14145 -0.977215,-0.32057 -1.425788,-0.59901 -0.476834,-0.30096 -0.93819,-0.64476 -1.399445,-0.98285 -0.399048,-0.3178 -0.77459,-0.67974 -1.172208,-0.99982 -0.406252,-0.23128 -0.761986,-0.56167 -1.102292,-0.9172 -0.372925,-0.3498 -0.603653,-0.85756 -0.897154,-1.29544 -0.33576,-0.45657 -0.693195,-0.88747 -1.047898,-1.32092 -0.409238,-0.45968 -0.702219,-1.0458 -1.036989,-1.58517 -0.312762,-0.49564 -0.493601,-1.08785 -0.702426,-1.65558 -0.244841,-0.6439 -0.39313,-1.33119 -0.53329,-2.01881 -0.135476,-0.5842 -0.205015,-1.18238 -0.239138,-1.78733 -0.02422,-0.51617 -0.02579,-1.03337 -0.02668,-1.55024 -0.01651,-0.59759 0.03245,-1.18522 0.170915,-1.75747 0.150047,-0.54138 0.352737,-1.05608 0.602927,-1.53564 0.314192,-0.52189 0.66069,-1.01493 1.010452,-1.50029 0.434822,-0.56558 0.927807,-1.05822 1.436467,-1.5161 0.476707,-0.42203 0.963768,-0.82508 1.445458,-1.23808 1.186267,-0.95786 2.457478,-1.73576 3.702177,-2.56233 -0.698701,0.50098 -2.799708,1.99313 -2.0961,1.50294 0.840477,-0.58554 1.671486,-1.19196 2.506735,-1.78903 0.06463,-0.0462 0.257531,-0.18696 0.192906,-0.14074 -0.705041,0.50429 -2.821078,2.01518 -2.114167,1.51497 2.66678,-1.88702 1.604524,-1.36652 2.736495,-1.90356 0.440779,-0.16433 0.898561,-0.20297 1.336412,-0.38408 0.201217,-0.0883 0.408987,-0.14537 0.617438,-0.19872 0,0 -2.147948,2.03934 -2.147948,2.03934 v 0 c -0.202824,0.0643 -0.404336,0.13368 -0.604749,0.20894 -0.43941,0.13231 -0.895941,0.19187 -1.313829,0.41718 -0.0694,0.0421 -0.274586,0.17515 -0.208214,0.1261 0.695672,-0.51421 2.79317,-2.0346 2.096734,-1.52201 -0.828967,0.61015 -1.661973,1.21173 -2.494333,1.81465 -2.063785,1.49491 7.77113,-5.63178 -0.603177,0.41761 -0.227224,0.15513 -0.45415,0.3031 -0.689745,0.43772 -0.08132,0.0465 -0.321091,0.19561 -0.244506,0.13796 1.033064,-0.7776 2.874132,-2.08199 1.827128,-1.33927 -0.488202,0.40862 -0.973198,0.82235 -1.456797,1.23934 -0.514172,0.43105 -1.002277,0.91511 -1.450205,1.44894 -0.361912,0.45478 -0.67087,0.97084 -1.013938,1.44771 -0.265848,0.44665 -0.475568,0.93457 -0.635174,1.45443 -0.171822,0.52779 -0.226342,1.08176 -0.201614,1.65031 -0.0016,0.51193 -0.0048,1.02412 0.0117,1.53576 0.02601,0.586 0.08102,1.16894 0.207306,1.73628 0.140412,0.66692 0.259534,1.34208 0.511667,1.96279 0.207706,0.54139 0.375332,1.11312 0.671327,1.59347 0.325342,0.52857 0.616394,1.09685 1.015204,1.54705 0.363063,0.44264 0.738843,0.87117 1.077423,1.34344 0.272863,0.43061 0.502693,0.90945 0.863417,1.24156 0.340847,0.34092 0.704883,0.63043 1.090355,0.88724 0.385605,0.33026 0.76271,0.67684 1.158707,0.98775 0.454849,0.33202 0.903621,0.68309 1.385323,0.95229 0.44123,0.22361 0.892861,0.4365 1.368639,0.50782 0.545057,0.033 1.090883,0.0105 1.636406,0.0191 0.550264,0.002 1.100545,7.6e-4 1.6508,-0.003 0.522274,-0.01 1.047982,-0.0214 1.562925,-0.14199 0.414518,-0.11878 0.821535,-0.27977 1.21093,-0.49453 0.396861,-0.20723 0.77612,-0.45952 1.167937,-0.68083 0.85527,-0.46745 2.032569,-1.38975 -1.58975,1.22207 -0.09118,0.0658 0.181319,-0.13393 0.268917,-0.20684 0.197427,-0.16434 0.345249,-0.3147 0.532198,-0.49626 0.618002,-0.59093 1.185148,-1.23754 1.683251,-1.9894 0.582382,-0.82777 1.123638,-1.69232 1.621559,-2.60219 0.42371,-0.7046 0.78563,-1.45744 1.14679,-2.21355 0.31129,-0.6127 0.62565,-1.23176 0.85811,-1.8978 0.21623,-0.62439 0.41002,-1.2513 0.55733,-1.90654 0.18949,-0.56536 0.40778,-1.11543 0.49002,-1.72611 0.12797,-0.67478 0.13168,-1.36031 0.11834,-2.05097 -0.002,-0.67345 0.001,-1.34689 -0.004,-2.02033 9e-5,-0.55921 -0.002,-1.11842 -6.1e-4,-1.67763 0.001,-0.55249 -10e-5,-1.10503 -0.0129,-1.65735 -0.0231,-0.78448 -0.0674,-1.56793 -0.15236,-2.34617 -0.0755,-0.7781 -0.0934,-1.56673 -0.24761,-2.33096 -0.11136,-0.66033 -0.19347,-1.32799 -0.30041,-1.98941 -0.0942,-0.53544 -0.12686,-1.08987 -0.34612,-1.58104 -0.26102,-0.65225 -0.5287,-1.3043 -0.84166,-1.92038 -0.29496,-0.56868 -0.65134,-1.0681 -1.01056,-1.57473 -0.37721,-0.57425 -0.731725,-1.17833 -1.181912,-1.66965 -0.399508,-0.41188 -0.794923,-0.84025 -1.237017,-1.17943 -0.378636,-0.22655 -0.756083,-0.30229 -1.175938,-0.26201 -0.395001,-4.1e-4 -0.790002,-0.002 -1.185003,-0.003 -0.459763,-0.002 -0.919513,-4e-4 -1.37927,2e-4 -0.428461,0.002 -0.856929,-0.002 -1.285379,0.004 -0.422693,4.1e-4 -0.84539,0.002 -1.268082,-0.002 -0.362543,-0.003 -0.786673,0.0739 -1.110623,-0.15612 -0.03895,-0.0745 -0.08911,-0.14148 -0.116846,-0.22336 -0.01529,-0.0451 -0.04154,-0.12013 -0.0084,-0.14647 1.025725,-0.81597 1.877732,-1.44797 2.89633,-2.05039 -4.044936,2.94383 -2.015609,1.58631 -1.203272,0.68352 0.233135,-0.23107 0.468867,-0.43049 0.726644,-0.61591 2.577569,-1.85414 1.624028,-1.28601 2.683135,-1.90814 0.846566,-0.46683 2.040925,-1.41269 -1.764817,1.32888 -0.06266,0.0452 0.121961,-0.0971 0.182984,-0.14562 0.252925,-0.20098 0.128512,-0.0864 0.364761,-0.33851 0.327689,-0.44423 0.654677,-0.90156 0.837612,-1.46943 0.164382,-0.58584 0.285623,-1.1899 0.431158,-1.7833 0.05379,-0.49811 0.01354,-1.00362 0.02812,-1.5053 0.0018,-0.57034 0.0031,-1.14068 -1.58e-4,-1.71101 -0.0031,-0.49327 0.0018,-0.98653 6.1e-4,-1.47981 -0.0018,-0.49575 -0.0043,-0.99245 -0.04306,-1.486289 -0.04581,-0.479877 -0.141839,-0.946796 -0.190584,-1.425236 -0.06311,-0.515814 -0.174372,-1.012868 -0.335716,-1.495148 C 94.953759,96.221513 94.788274,95.7621 94.583936,95.331582 94.323192,94.851863 94.070079,94.374335 93.698603,94.011 c -0.331648,-0.370945 -0.673619,-0.75043 -1.112061,-0.90521 -0.409889,-0.105559 -0.822038,-0.109344 -1.239488,-0.09671 -0.442281,-0.0027 -0.884564,-0.0076 -1.326853,-0.0063 -0.398924,0.0052 -0.8006,0.0025 -1.195206,0.08574 -0.40439,0.106704 -0.777931,0.304325 -1.139978,0.552695 -0.404954,0.2538 -0.805933,0.516571 -1.202528,0.790148 -0.06169,0.04219 -0.245865,0.170692 -0.185056,0.126571 0.708245,-0.513871 2.841469,-2.037078 2.127413,-1.535862 -0.835906,0.586749 -1.661519,1.196009 -2.49299,1.792473 -0.06008,0.04309 -0.241387,0.169966 -0.181628,0.126192 0.705398,-0.516689 1.410555,-1.033926 2.118591,-1.544979 0.06513,-0.04702 -0.126453,0.101807 -0.189679,0.152708 -0.413243,0.419406 -0.789013,0.883909 -1.135354,1.390115 -0.361745,0.526798 -0.712135,1.072059 -0.968607,1.691028 0,0 -2.470276,1.393368 -2.470276,1.393368 z"
         id="path863"
         style="fill:#00ff00;stroke:#b00000;stroke-width:0.00810843;stroke-miterlimit:4;stroke-dasharray:none;stroke-opacity:1" />
      <path
         inkscape:connector-curvature="0"
         d="m 91.631653,101.08219 c -0.462776,0.49774 -0.794438,1.12151 -1.089386,1.78008 -0.321309,0.6886 -0.514333,1.44801 -0.713118,2.20015 -0.1358,0.56595 -0.297307,1.1232 -0.409772,1.69737 -0.09057,0.55723 -0.09846,1.12747 -0.104989,1.69383 -0.0038,0.57316 -0.0054,1.14631 -0.0032,1.71948 -0.0026,0.70114 -0.0048,1.40225 -0.0029,2.1034 0.0031,0.69442 -6.7e-4,1.38885 9.76e-4,2.08328 0.04315,0.60419 0.06639,1.21871 0.208642,1.80162 0.161569,0.54097 0.278425,1.10102 0.380056,1.6637 0.13655,0.64348 0.356503,1.25179 0.5314,1.88044 0.150942,0.57605 0.275165,1.16332 0.395345,1.75055 0.08787,0.53813 0.108152,1.08662 0.17407,1.62887 0.09203,0.59109 0.09443,1.19422 0.14463,1.79079 0.09027,0.65899 0.274991,1.28835 0.405133,1.93534 0.08188,0.54312 0.174128,1.08399 0.242651,1.63023 0.06652,0.54186 0.0754,1.09013 0.07891,1.6371 0.0035,0.55526 0.0052,1.11053 0.0061,1.66581 -0.0042,0.57567 -0.0051,1.15134 -0.0035,1.72704 0.01034,0.61076 -0.225425,1.10093 -0.492547,1.58535 -0.226961,0.48677 -0.476552,0.95033 -0.761893,1.38672 -0.319319,0.48187 -0.597442,1.0024 -0.901849,1.4985 -0.32564,0.47713 -0.633553,0.97202 -0.950832,1.45766 -0.320753,0.47707 -0.660888,0.93408 -1.01968,1.36691 -0.344133,0.37826 -0.689479,0.75281 -1.081546,1.05173 -0.44527,0.34975 -0.880694,0.71865 -1.323121,1.07433 -0.85047,0.61493 -1.705351,1.22047 -2.551411,1.84479 -0.675442,0.49841 1.358663,-0.98028 2.039536,-1.46708 0.156563,-0.11193 -0.306763,0.23736 -0.463491,0.34894 -2.532882,1.80325 -1.6409,1.30156 -2.748289,1.91014 -0.975834,0.55921 -3.135172,2.16787 0.882096,-0.71875 -0.845785,0.6037 -1.69157,1.2074 -2.537355,1.8111 -0.07682,0.0547 -0.307164,0.21922 -0.230449,0.16425 0.692108,-0.49592 1.381862,-0.997 2.076625,-1.48712 0.0742,-0.0523 -0.142798,0.11617 -0.21457,0.17355 -0.260145,0.20794 -0.184081,0.14795 -0.45073,0.34168 -1.217925,0.90882 -2.391747,1.9447 -3.733324,2.54225 -0.441224,0.13961 -0.850946,0.39036 -1.284998,0.55575 -0.41008,0.0933 -0.818875,0.18647 -1.230377,0.27491 -0.265119,0.0547 -0.533264,0.0761 -0.801273,0.0932 0,0 2.175666,-1.9978 2.175666,-1.9978 v 0 c 0.261119,-0.0259 0.521932,-0.0583 0.779406,-0.12054 0.404252,-0.0951 0.816055,-0.15648 1.208434,-0.31455 0.421685,-0.19024 0.841503,-0.38627 1.268367,-0.5584 0.209001,-0.10674 0.278191,-0.1374 0.483134,-0.26125 0.07611,-0.046 0.298543,-0.19817 0.225661,-0.14466 -3.709099,2.72306 -2.389518,1.76124 -1.599414,1.13231 1.549727,-1.11434 6.036385,-4.41855 1.359575,-1.00369 1.233592,-0.88874 2.43613,-1.82677 3.729358,-2.56934 0.954609,-0.57745 0.249877,-0.15977 -1.86614,1.37928 -0.07593,0.0552 0.154401,-0.10496 0.229688,-0.16153 0.08114,-0.061 0.157566,-0.13147 0.239406,-0.19095 0.846597,-0.61541 1.69265,-1.23214 2.545678,-1.83359 0.679836,-0.47934 -1.350717,0.97815 -2.026076,1.46722 0.439983,-0.34684 0.875091,-0.70239 1.301294,-1.07462 0.397138,-0.28839 0.768831,-0.59927 1.105955,-0.99428 0.380887,-0.39312 0.703559,-0.86573 1.035193,-1.32139 0.325052,-0.47876 0.619489,-0.98736 0.958445,-1.45145 0.314278,-0.48779 0.591233,-1.00708 0.892727,-1.5067 0.293103,-0.41864 0.570364,-0.85407 0.770472,-1.35417 0.239516,-0.44057 0.54034,-0.84207 0.561598,-1.40362 0.0018,-0.57478 0.0013,-1.14954 -0.0015,-1.72432 0.0023,-0.55537 0.0066,-1.11078 0.0029,-1.66617 -0.0074,-0.53214 -0.01278,-1.06568 -0.06587,-1.59455 -0.06076,-0.53991 -0.164973,-1.06843 -0.226964,-1.60789 -0.11959,-0.66408 -0.306508,-1.30384 -0.418068,-1.97046 -0.06251,-0.5897 -0.05575,-1.18848 -0.145066,-1.77492 -0.0728,-0.53331 -0.09501,-1.06974 -0.166681,-1.60319 -0.108866,-0.58115 -0.230521,-1.15995 -0.368788,-1.73097 -0.182898,-0.63894 -0.401377,-1.26095 -0.553998,-1.91165 -0.09511,-0.55405 -0.219995,-1.10095 -0.371724,-1.63495 -0.160904,-0.61372 -0.181918,-1.25936 -0.238413,-1.89817 0.0016,-0.69477 -0.0021,-1.38954 7.93e-4,-2.08431 0.0016,-0.69905 -9.76e-4,-1.39809 -0.0059,-2.09711 1.61e-4,-0.57409 -0.0061,-1.14815 -0.0028,-1.72222 0.0075,-0.58492 0.01469,-1.17289 0.083,-1.75259 0.08657,-0.59833 0.274124,-1.15974 0.410204,-1.74206 0.213855,-0.76013 0.380941,-1.54571 0.699421,-2.25328 0.278852,-0.67022 0.578446,-1.33074 1.026001,-1.85259 0,0 2.503444,-1.29279 2.503444,-1.29279 z"
         id="path865"
         style="fill:#00ff00;stroke:#b00000;stroke-width:0.00810843;stroke-miterlimit:4;stroke-dasharray:none;stroke-opacity:1" />
      <path
         inkscape:connector-curvature="0"
         d="m 107.62175,115.06704 c 0.12872,0.62854 0.2424,1.26172 0.35931,1.89402 0.0966,0.58569 0.13379,1.18206 0.1538,1.77831 0.0122,0.47278 0.0105,0.94587 0.01,1.41882 -0.005,0.51709 -0.004,1.03425 -0.004,1.55137 -0.0199,0.46688 0.0119,0.92331 0.0734,1.38281 0.0802,0.53987 0.26547,1.03809 0.50161,1.49717 0.30155,0.5117 0.65453,0.97059 0.98062,1.45782 0.3316,0.55413 0.73223,0.9871 1.22571,1.29805 0.42055,0.23394 0.87378,0.33318 1.33002,0.37256 0.28163,0.0129 0.56352,0.004 0.84522,-3e-5 0.24389,-0.0245 0.49695,0.0422 0.73092,-0.0541 0.04,-0.0303 0.0815,-0.0579 0.12011,-0.0909 0.0929,-0.0793 0.37948,-0.30221 0.28185,-0.23226 -2.21786,1.58904 -2.83135,2.19087 -2.02824,1.41952 0,0 2.50556,-1.26826 2.50556,-1.26826 v 0 c -0.81122,0.98503 -0.0864,0.12994 -2.57965,1.97118 -0.10576,0.0781 -0.19543,0.14818 -0.31364,0.19466 -0.0503,0.0198 -0.10321,0.0262 -0.15481,0.0394 -0.25201,0.01 -0.50414,0.0108 -0.75626,0.0118 -0.28663,0.002 -0.57457,0.008 -0.85966,-0.0354 -0.47128,-0.0863 -0.93638,-0.2291 -1.36375,-0.49948 -0.51033,-0.3565 -0.93394,-0.8146 -1.28397,-1.40312 -0.33627,-0.49553 -0.70394,-0.95899 -1.00568,-1.48938 -0.25563,-0.49697 -0.45409,-1.03291 -0.56385,-1.60971 -0.0641,-0.47725 -0.12338,-0.94752 -0.0917,-1.43407 0.001,-0.51666 0.004,-1.03334 1.6e-4,-1.55 0.001,-0.4704 0.004,-0.94082 -0.001,-1.41119 -0.0105,-0.57889 -0.032,-1.15948 -0.12123,-1.72927 -0.10553,-0.62055 -0.21647,-1.24317 -0.36759,-1.84857 0,0 2.37648,-1.63174 2.37648,-1.63174 z"
         id="path867"
         style="fill:#00ff00;stroke:#b00000;stroke-width:0.00810843;stroke-miterlimit:4;stroke-dasharray:none;stroke-opacity:1" />
      <path
         inkscape:connector-curvature="0"
         d="m 110.15782,96.43051 c -0.0198,0.830014 -0.0351,1.661403 -0.007,2.491173 0.0805,0.973974 0.23151,1.935097 0.36968,2.898017 0.10329,0.74489 0.11823,1.50124 0.2131,2.24721 0.14024,0.63962 0.20968,1.29453 0.29218,1.9479 0.11674,0.68103 0.23027,1.36221 0.33711,2.04624 0.13681,0.66951 0.24527,1.3464 0.36561,2.02071 0.11095,0.60577 0.24009,1.20509 0.32658,1.81729 0.0729,0.55788 0.15575,1.1148 0.24486,1.66909 0.10214,0.66149 0.26396,1.30576 0.40049,1.95697 0.13516,0.62366 0.34502,1.21295 0.45387,1.84594 0.0913,0.68745 0.26585,1.34783 0.42403,2.0139 0.10158,0.54956 0.21213,1.09252 0.36231,1.6247 0.10962,0.46373 0.23222,0.92334 0.31786,1.39526 0.0456,0.50333 0.20045,0.96718 0.33659,1.43871 0.13228,0.58659 0.46814,1.02176 0.72798,1.51825 0.17169,0.25672 0.30233,0.5441 0.42297,0.84038 0,0 -2.35549,1.67689 -2.35549,1.67689 v 0 c -0.11926,-0.28417 -0.23428,-0.56991 -0.39768,-0.82115 -0.26485,-0.5201 -0.60454,-0.98279 -0.75001,-1.58713 -0.14634,-0.48195 -0.32689,-0.95184 -0.36644,-1.47277 -0.075,-0.46213 -0.20046,-0.90617 -0.2985,-1.36085 -0.14994,-0.54073 -0.27229,-1.08715 -0.35561,-1.6506 -0.15116,-0.67638 -0.34325,-1.3379 -0.44208,-2.03134 -0.0987,-0.63183 -0.29656,-1.22131 -0.44127,-1.83716 -0.12852,-0.65745 -0.303,-1.29981 -0.41345,-1.96258 -0.10022,-0.55594 -0.17312,-1.12265 -0.24609,-1.68462 -0.0784,-0.60921 -0.21625,-1.19966 -0.31679,-1.80327 -0.12294,-0.6762 -0.22271,-1.35851 -0.36434,-2.02944 -0.11583,-0.68491 -0.21748,-1.37336 -0.34229,-2.05558 -0.0931,-0.65107 -0.14412,-1.31158 -0.30106,-1.9471 -0.0903,-0.74971 -0.0988,-1.50671 -0.19021,-2.2567 -0.12586,-0.9789 -0.28319,-1.95127 -0.37582,-2.93674 -0.0427,-0.824389 -0.0234,-1.649893 -0.0503,-2.475184 0,0 2.41866,-1.536416 2.41866,-1.536416 z"
         id="path869"
         style="fill:#00ff00;stroke:#b00000;stroke-width:0.00810843;stroke-miterlimit:4;stroke-dasharray:none;stroke-opacity:1" />
      <path
         inkscape:connector-curvature="0"
         d="m 112.90152,118.96752 c 0.25969,-0.71238 0.58912,-1.37286 1.01435,-1.9481 0.43879,-0.48235 0.92721,-0.88636 1.38232,-1.34429 0.95137,-0.94465 0.19702,-0.21492 2.71106,-2.02918 0.27707,-0.19994 0.57317,-0.32227 0.88226,-0.41605 0.38466,-0.0972 0.77827,-0.10057 1.16908,-0.10354 0.41557,0.005 0.83116,0.005 1.24674,0.007 0.43836,-0.0348 0.76826,0.003 1.16189,0.25582 0.40693,0.29402 0.71908,0.73396 0.9986,1.19736 0.22399,0.4472 0.41891,0.91794 0.57305,1.40891 0.12984,0.44977 0.14872,0.92919 0.22271,1.39465 0.0875,0.47936 0.115,0.96833 0.13066,1.45793 0.008,0.57857 0.014,1.15723 0.0117,1.73589 0.0182,0.61775 -0.0184,1.22706 -0.16488,1.81848 -0.18066,0.59029 -0.52007,1.06148 -0.85842,1.5188 -0.32341,0.45101 -0.68239,0.85183 -1.08041,1.1967 -0.0598,0.0481 -0.1177,0.10015 -0.17955,0.14408 -0.29918,0.21252 -1.73662,1.54085 -2.69106,1.82714 -0.18697,0.056 -0.37301,0.0735 -0.55897,0.13655 -0.41722,0.0956 -0.83821,0.20091 -1.23915,0.3766 -0.41219,0.15637 -0.82323,0.31215 -1.24762,0.40893 0,0 2.14934,-2.03145 2.14934,-2.03145 v 0 c 0.41661,-0.11989 0.82412,-0.28146 1.23343,-0.43479 0.41533,-0.13573 0.83296,-0.25586 1.25379,-0.36176 0.18233,-0.0443 0.3647,-0.0838 0.53949,-0.16525 0.0593,-0.0276 0.22893,-0.1335 0.17453,-0.0932 -1.73915,1.28942 -2.89743,2.04906 -1.94387,1.4204 0.40074,-0.33133 0.79274,-0.67175 1.10853,-1.13199 0.33188,-0.42844 0.67338,-0.86004 0.89875,-1.39137 0.18654,-0.54632 0.22832,-1.12239 0.20557,-1.71314 -0.002,-0.57413 0.005,-1.14847 -0.0101,-1.72241 -0.0136,-0.47143 -0.0357,-0.9439 -0.11517,-1.40653 -0.0744,-0.44892 -0.0982,-0.90609 -0.19967,-1.34745 -0.13763,-0.46532 -0.32489,-0.90564 -0.53062,-1.32954 -0.25546,-0.42028 -0.54236,-0.82033 -0.93018,-1.05204 -0.35576,-0.16805 -0.72135,-0.14587 -1.09757,-0.13947 -0.41536,-0.003 -0.83082,-0.009 -1.24615,7.6e-4 -0.37718,0.0121 -0.75735,0.0335 -1.1213,0.17012 -0.21458,0.0897 -0.41662,0.19084 -0.61731,0.32266 -0.0737,0.0484 -0.2904,0.2042 -0.21862,0.15136 2.20906,-1.62629 2.71997,-2.10061 1.87007,-1.33256 -0.44717,0.47109 -0.91982,0.89835 -1.39779,1.31936 -0.44891,0.50623 -0.78653,1.12287 -1.02945,1.81541 0,0 -2.45997,1.40932 -2.45997,1.40932 z"
         id="path871"
         style="fill:#00ff00;stroke:#b00000;stroke-width:0.00810843;stroke-miterlimit:4;stroke-dasharray:none;stroke-opacity:1" />
      <path
         inkscape:connector-curvature="0"
         d="m 124.59625,92.784815 c -0.0164,0.657578 -0.0133,1.31567 -0.0159,1.973502 0.002,0.788136 0.0114,1.574147 -0.0467,2.359547 -0.0722,0.789111 -0.10481,1.582237 -0.12485,2.375675 -0.0162,0.866791 -0.0191,1.733931 -0.0158,2.600921 -0.001,0.73972 0.004,1.47939 0.01,2.21907 0.007,0.61069 -6.1e-4,1.2214 -0.004,1.83208 -0.008,0.75435 -0.009,1.50689 0.0444,2.25857 0.0294,0.69969 0.18225,1.37017 0.33043,2.04084 0.11089,0.51065 0.21026,1.02874 0.3575,1.5254 0.17224,0.61801 0.29439,1.25412 0.45083,1.87855 0.17316,0.67375 0.35737,1.3422 0.55742,2.00415 0.13124,0.50864 0.27001,1.0159 0.36578,1.53725 0.0924,0.47993 0.32092,0.88896 0.4657,1.34507 0.14372,0.47408 0.35446,0.90687 0.55922,1.34202 0.26538,0.4904 0.50151,1.00377 0.75936,1.50016 0.24183,0.52134 0.5383,0.80034 0.95067,1.07611 0.38034,0.23424 0.7813,0.37556 1.19909,0.45413 0.40366,0.0596 0.81097,0.0579 1.21682,0.059 0.45693,-0.002 0.91386,-0.002 1.37079,1.1e-4 0.49735,0.0524 0.95572,-0.0675 1.40661,-0.32163 0.38155,-0.21136 0.76026,-0.43803 1.12506,-0.69221 -3.9995,2.97467 -1.96441,1.56903 -1.19639,0.55798 0.24036,-0.32004 0.46579,-0.65522 0.68095,-1.0017 0,0 2.47126,-1.32431 2.47126,-1.32431 v 0 c -0.21486,0.35469 -0.42969,0.70719 -0.67572,1.0301 -0.96028,1.36843 -1.94176,1.90888 -3.38377,2.84586 -0.37508,0.23433 -0.74788,0.47815 -1.14257,0.6584 -0.47721,0.1924 -0.95662,0.25577 -1.45854,0.21665 -0.46026,0.005 -0.92055,0.01 -1.38082,0.005 -0.41604,-0.006 -0.83442,-0.009 -1.24488,-0.10504 -0.43404,-0.11339 -0.85671,-0.28388 -1.24958,-0.54445 -0.42325,-0.30137 -0.75745,-0.69828 -1.01179,-1.22275 -0.25984,-0.50113 -0.50255,-1.0152 -0.77233,-1.5083 -0.21111,-0.45153 -0.43225,-0.89763 -0.58383,-1.38751 -0.14198,-0.47703 -0.38533,-0.89417 -0.48632,-1.39015 -0.0827,-0.51113 -0.22105,-1.0035 -0.33555,-1.50421 -0.19339,-0.67117 -0.38025,-1.34458 -0.55984,-2.02176 -0.15405,-0.61727 -0.28963,-1.24001 -0.45181,-1.85341 -0.16013,-0.5039 -0.26708,-1.03236 -0.36934,-1.55835 -0.14105,-0.69183 -0.30544,-1.37998 -0.33778,-2.09764 -0.0636,-0.76117 -0.0704,-1.51957 -0.0597,-2.28487 -0.004,-0.60863 -0.0112,-1.21728 -0.005,-1.82592 0.005,-0.74353 0.009,-1.48704 0.008,-2.2306 0.004,-0.86911 -10e-4,-1.73829 0.0104,-2.60735 0.014,-0.79978 0.0434,-1.599022 0.11295,-2.394718 0.0646,-0.775645 0.0705,-1.549943 0.0574,-2.329815 -0.002,-0.651119 6.1e-4,-1.302512 -0.0159,-1.953362 0,0 2.41866,-1.536413 2.41866,-1.536413 z"
         id="path873"
         style="fill:#00ff00;stroke:#b00000;stroke-width:0.00810843;stroke-miterlimit:4;stroke-dasharray:none;stroke-opacity:1" />
      <path
         inkscape:connector-curvature="0"
         d="m 136.2912,109.44683 c -0.0374,0.63579 -6.1e-4,1.26516 0.0669,1.89487 0.0676,0.56025 0.066,1.12884 0.11851,1.69042 0.0838,0.50675 0.0945,1.02605 0.20979,1.52382 0.15408,0.50149 0.30523,1.00746 0.47697,1.50048 0.20079,0.58431 0.44324,1.14157 0.69995,1.68997 0.23652,0.48829 0.48794,0.95984 0.77797,1.40125 0.33869,0.5133 0.71512,0.98 1.14904,1.36659 0.35673,0.36278 0.72409,0.62545 1.17356,0.74743 0.43354,0.048 0.8608,0.13184 1.29174,0.20824 0.44607,0.0694 0.89572,0.0855 1.34469,0.0942 0.37501,-0.0168 0.75743,0.0511 1.12682,-0.0416 0.0415,0.0821 0.52352,-0.26904 0.45293,-0.2188 -4.46197,3.17535 -2.64513,2.15903 -2.03883,1.37785 0.0904,-0.12222 0.16725,-0.25533 0.2381,-0.39551 0,0 2.47977,-1.37737 2.47977,-1.37737 v 0 c -0.0653,0.15522 -0.1214,0.31913 -0.21817,0.4494 -0.70441,1.2044 -1.90933,1.96179 -3.0818,2.178 -0.38182,0.0223 -0.76433,0.008 -1.14637,-6.1e-4 -0.45477,-0.0189 -0.90965,-0.0507 -1.36059,-0.13018 -0.43637,-0.0823 -0.87761,-0.12137 -1.30901,-0.23838 -0.46155,-0.17425 -0.85063,-0.48394 -1.22552,-0.86013 -0.43545,-0.42407 -0.82989,-0.9069 -1.18619,-1.43376 -0.29855,-0.45604 -0.55829,-0.94188 -0.7992,-1.44799 -0.25903,-0.56056 -0.49892,-1.13252 -0.71506,-1.72074 -0.1825,-0.50175 -0.33616,-1.02088 -0.49573,-1.53391 -0.13208,-0.51216 -0.15108,-1.04372 -0.23313,-1.57018 -0.0686,-0.56101 -0.0409,-1.13433 -0.11314,-1.69628 -0.0643,-0.64021 -0.10932,-1.27689 -0.0986,-1.92315 0,0 2.41465,-1.53387 2.41465,-1.53387 z"
         id="path875"
         style="fill:#00ff00;stroke:#b00000;stroke-width:0.00810843;stroke-miterlimit:4;stroke-dasharray:none;stroke-opacity:1" />
      <path
         inkscape:connector-curvature="0"
         d="m 143.44092,104.47125 c 0.50445,0.016 1.00913,0.0111 1.51368,0.009 0.48217,-0.064 0.87655,0.0858 1.27963,0.40365 0.43696,0.41481 0.88129,0.81729 1.3163,1.23526 0.48735,0.41041 0.9234,0.90424 1.39157,1.3451 0.4054,0.33828 0.7336,0.72754 0.91428,1.29702 0.13304,0.52913 0.138,1.08492 0.14321,1.63385 0.002,0.51458 -4.8e-4,1.02918 -0.002,1.54376 -0.0115,0.58338 0.008,1.1675 -0.0245,1.74977 -0.0567,0.72684 -0.13046,1.44976 -0.22069,2.17121 -0.0693,0.5182 -0.10072,1.0418 -0.11597,1.56624 -0.0129,0.55456 -0.0123,1.10936 -0.0146,1.66408 0.0158,0.61959 0.18112,1.20648 0.40877,1.75092 0.25435,0.54152 0.5797,1.01593 0.9794,1.39548 0.37483,0.34136 0.8021,0.50864 1.23706,0.68001 0.45446,0.15527 0.92417,0.20756 1.39303,0.23528 0.19271,0.0186 0.37301,0.0181 0.56098,-0.0339 0,0 -2.17147,2.01367 -2.17147,2.01367 v 0 c -0.19429,0.004 -0.3882,-6e-4 -0.58204,-0.0205 -0.48204,-0.0487 -0.9627,-0.13019 -1.42745,-0.30329 -0.46136,-0.17812 -0.8957,-0.42402 -1.28569,-0.78577 -0.41882,-0.42163 -0.76393,-0.93816 -1.03656,-1.51783 -0.249,-0.59022 -0.43544,-1.22067 -0.47155,-1.89196 -0.003,-0.55546 -0.008,-1.11106 -0.002,-1.66648 0.0128,-0.54039 0.0404,-1.08056 0.11544,-1.61392 0.0964,-0.71343 0.18481,-1.42448 0.22564,-2.14701 0.0499,-0.57049 0.0176,-1.14517 0.0238,-1.71828 0.003,-0.51442 0.009,-1.02881 0.01,-1.54323 -0.002,-0.51017 0.001,-1.02841 -0.10157,-1.52598 -0.1514,-0.51689 -0.47759,-0.83429 -0.82945,-1.14748 -0.45656,-0.45716 -0.9011,-0.93347 -1.3847,-1.34739 -0.42974,-0.40871 -0.86634,-0.80734 -1.3117,-1.18911 -0.38065,-0.25247 -0.76563,-0.29451 -1.19402,-0.26148 -0.51099,-0.002 -1.02209,-0.007 -1.53299,0.009 0,0 2.19609,-1.9892 2.19609,-1.9892 z"
         id="path877"
         style="fill:#00ff00;stroke:#b00000;stroke-width:0.00810843;stroke-miterlimit:4;stroke-dasharray:none;stroke-opacity:1" />
      <path
         inkscape:connector-curvature="0"
         d="m 146.2698,116.66385 c -0.45397,-0.11779 -0.90492,-0.14728 -1.36394,-0.0837 -0.1795,0.0264 -0.22769,0.015 -0.389,0.10505 -0.0543,0.0303 -0.20677,0.14752 -0.15497,0.11088 3.84352,-2.71887 2.56306,-1.89003 1.77313,-1.21288 -0.45456,0.40855 -0.86038,0.89218 -1.26293,1.37599 -0.42375,0.5203 -0.7957,1.09529 -1.12747,1.70912 -0.27713,0.46173 -0.50308,0.95024 -0.62247,1.5083 -0.0764,0.44242 -0.0761,0.89693 -0.078,1.34723 0.009,0.52375 0.16638,0.98464 0.38064,1.42496 0.27675,0.51153 0.60653,0.96842 1.00283,1.33733 0.42107,0.40066 0.94014,0.5375 1.42198,0.77738 0.41007,0.20497 0.84462,0.30412 1.27007,0.44429 0.35755,0.11431 0.72635,0.13961 1.09354,0.15439 0.36352,0.01 0.72717,0.007 1.09075,0.006 0.47456,0.0386 0.91036,0.009 1.34498,-0.24095 0.94822,-0.71831 -0.31438,0.2413 -1.89751,1.34131 -0.0715,0.0497 0.13576,-0.11427 0.20131,-0.17541 0.20287,-0.18919 0.38769,-0.40438 0.57305,-0.61891 0.0565,-0.0772 0.11312,-0.15434 0.16967,-0.23151 0,0 2.47224,-1.31608 2.47224,-1.31608 v 0 c -0.0517,0.0909 -0.10348,0.18178 -0.15522,0.27267 -0.99806,1.21048 -2.1499,2.18025 -3.48411,2.79685 -0.46261,0.16894 -0.93259,0.16215 -1.41173,0.15389 -0.36618,2e-4 -0.73258,0.002 -1.09846,-0.0192 -0.37934,-0.0294 -0.75768,-0.0825 -1.12391,-0.21591 -0.42921,-0.14487 -0.86648,-0.25728 -1.27563,-0.48224 -0.50905,-0.23335 -1.03019,-0.43385 -1.46508,-0.85782 -0.41297,-0.40573 -0.76089,-0.89892 -1.056,-1.44161 -0.24027,-0.48932 -0.42605,-0.99937 -0.46289,-1.5794 -4.8e-4,-0.47274 -0.004,-0.94816 0.0538,-1.41673 0.0954,-0.60143 0.28862,-1.14585 0.59798,-1.62817 0.3341,-0.62891 0.68506,-1.23396 1.10947,-1.77619 0.39958,-0.48761 0.79643,-0.98133 1.23581,-1.41413 1.02719,-0.97882 2.12579,-2.12899 3.44202,-2.23452 0.47649,-0.0277 0.94667,0.0525 1.41784,0.13644 0,0 -2.22183,1.94345 -2.22183,1.94345 z"
         id="path879"
         style="fill:#00ff00;stroke:#b00000;stroke-width:0.00810843;stroke-miterlimit:4;stroke-dasharray:none;stroke-opacity:1" />
      <path
         inkscape:connector-curvature="0"
         d="m 104.59782,111.37929 c -0.18542,-0.4641 -0.32617,-0.95148 -0.43467,-1.45117 -0.0746,-0.37673 -0.0737,-0.76607 -0.0811,-1.15137 -0.002,-0.38698 0.002,-0.77397 0.004,-1.16094 0.004,-0.3318 0.002,-0.16364 0.004,-0.50449 0,0 2.40489,-1.52713 2.40489,-1.52713 v 0 c 0.001,0.33877 7e-5,0.17191 0.003,0.50057 7e-5,0.38479 4.9e-4,0.76958 -0.001,1.15436 -0.002,0.36206 -6.1e-4,0.72697 0.0496,1.0847 0.0828,0.48268 0.20637,0.95481 0.40737,1.38291 0,0 -2.35617,1.67256 -2.35617,1.67256 z"
         id="path881"
         style="fill:#00ff00;stroke:#b00000;stroke-width:0.00810843;stroke-miterlimit:4;stroke-dasharray:none;stroke-opacity:1" />
      <path
         inkscape:connector-curvature="0"
         d="m 134.47691,103.46937 c 0.0861,0.58881 0.23617,1.16064 0.44481,1.69897 0.15197,0.33886 0.37585,0.58125 0.62133,0.80779 0,0 -2.28635,1.80073 -2.28635,1.80073 v 0 c -0.27409,-0.26506 -0.50737,-0.56819 -0.6743,-0.9526 -0.22076,-0.56561 -0.36679,-1.16464 -0.50313,-1.76911 0,0 2.39764,-1.58578 2.39764,-1.58578 z"
         id="path883"
         style="fill:#00ff00;stroke:#b00000;stroke-width:0.00810843;stroke-miterlimit:4;stroke-dasharray:none;stroke-opacity:1" />
      <text
         id="text900"
         y="148.07367"
         x="109.6721"
         style="font-style:normal;font-weight:normal;font-size:10.58333302px;line-height:1.25;font-family:sans-serif;letter-spacing:0px;word-spacing:0px;fill:#aa0000;fill-opacity:1;stroke:none;stroke-width:0.26458332"
         xml:space="preserve"><tspan
           style="fill:#aa0000;stroke-width:0.26458332"
           y="148.07367"
           x="109.6721"
           id="tspan898"
           sodipodi:role="line">SEM</tspan></text>
      <text
         id="text904"
         y="160.65898"
         x="97.985733"
         style="font-style:normal;font-weight:normal;font-size:10.58333302px;line-height:1.25;font-family:sans-serif;letter-spacing:0px;word-spacing:0px;fill:#000000;fill-opacity:1;stroke:none;stroke-width:0.26458332"
         xml:space="preserve"><tspan
           style="stroke-width:0.26458332"
           y="160.65898"
           x="97.985733"
           id="tspan902"
           sodipodi:role="line">Acentos</tspan></text>
      <text
         id="text908"
         y="240.66571"
         x="26.069601"
         style="font-style:normal;font-weight:normal;font-size:6.3499999px;line-height:1.25;font-family:sans-serif;letter-spacing:0px;word-spacing:0px;fill:#000000;fill-opacity:1;stroke:none;stroke-width:0.26458332"
         xml:space="preserve"><tspan
           style="font-size:6.3499999px;stroke-width:0.26458332"
           y="240.66571"
           x="26.069601"
           id="tspan906"
           sodipodi:role="line">Em Português</tspan></text>
      <text
         id="text912"
         y="240.36604"
         x="95.288872"
         style="font-style:normal;font-weight:normal;font-size:6.3499999px;line-height:1.25;font-family:sans-serif;letter-spacing:0px;word-spacing:0px;fill:#000000;fill-opacity:1;stroke:none;stroke-width:0.26458332"
         xml:space="preserve"><tspan
           style="font-size:6.3499999px;stroke-width:0.26458332"
           y="240.36604"
           x="95.288872"
           id="tspan910"
           sodipodi:role="line">PJLA Apps</tspan></text>
    </g>
  </g>
</svg>
